<?xml version="1.0" encoding="utf-8"?>
<!-- Generator: Adobe Illustrator 16.0.0, SVG Export Plug-In . SVG Version: 6.00 Build 0)  -->
<!DOCTYPE svg PUBLIC "-//W3C//DTD SVG 1.0//EN" "http://www.w3.org/TR/2001/REC-SVG-20010904/DTD/svg10.dtd">
<svg version="1.0" id="Layer_1" xmlns="http://www.w3.org/2000/svg" xmlns:xlink="http://www.w3.org/1999/xlink" x="0px" y="0px"
	 width="595.28px" height="841.89px" viewBox="0 0 595.28 841.89" enable-background="new 0 0 595.28 841.89" xml:space="preserve">
<g>
	<path fill-rule="evenodd" clip-rule="evenodd" d="M429.691,563.312c4.392-8.985,4.131-18.299,1.182-27.344
		c-2.393-7.342-7.806-14.022-8.892-21.421c-1.928-13.105-9.063-22.874-18.627-30.333c-7.009-5.466-13.315-10.188-17.852-18.358
		c-9.149-16.479-22.79-27.638-40.014-33.848c-1.411,0.529-3.054,0.668-4.892,0.223c-6.449-1.561-12.691-3.86-19.293-4.489
		c-25.029,2.286-45.097,13.409-60.229,33.409c-2.866,3.787-5.233,8.646-9.101,10.861c-12.249,7.007-18.449,17.674-22.491,30.4
		c-1.132,3.571-3.767,7.121-6.661,9.611c-5.791,4.985-11.165,10.815-10.442,18.192c0.912,9.292-4.173,15.366-8.057,22.496
		c-4.671,8.581-6.63,17.471-0.363,26.493c1.139,1.641,1.604,4.559,0.977,6.432c-6.431,19.279-1.59,35.199,13.893,48.396
		c1.706,1.455,3.062,4.32,3.063,6.533c0.023,18.71,9.946,33.596,27.188,41.013c2.891,1.246,6.608,4.018,7.137,6.631
		c3.887,19.241,17.842,28.843,35.069,32.75c17.274,3.919,35.062,5.354,53.204,1.428c13.788-2.979,24.654-8.953,34.129-18.817
		c4.003-4.168,8.898-7.971,14.115-10.468c15.912-7.604,25.703-19.278,28.363-36.692c0.492-3.228,1.622-7.023,3.829-9.223
		c12.221-12.155,11.762-27.18,9.313-42.009c-0.854-5.177-0.768-8.976,1.535-13.381C441.651,580.562,439.148,569.62,429.691,563.312z
		 M327.257,436.231c28.41,3.177,47.712,17.964,60.171,45.626c-42.99,5.429-83.173,1.215-122.729-12.517
		C274.127,449.887,303.689,433.596,327.257,436.231z M238.161,496.185c5.892-7.142,12.143-14.37,19.631-19.668
		c2.831-2.003,9.818,0.432,14.347,2.219c19.436,7.666,39.838,10.833,60.438,11.668c16.799,0.683,33.695-0.997,50.551-1.59
		c4.973-0.174,10.252-5.354,14.852,0.092c5.76,6.815,11.093,13.991,16.252,21.254c0.425,0.597-1.5,3.764-2.975,4.515
		c-3.109,1.582-6.569,2.951-10.014,3.352c-15.645,1.823-31.334,3.281-49.323,5.105c-28.047-3.295-58.325-6.543-88.49-10.617
		c-7.376-0.997-14.341-4.804-21.556-7.13C236.68,503.71,235.167,499.814,238.161,496.185z M225.198,517.798
		c3.515-2.908,7.351-5.439,11.04-8.145c-0.217,0.719-0.435,1.438-0.652,2.155c16.989,4.218,33.786,9.591,51.017,12.339
		c18.81,3.002,37.994,3.951,57.058,5.085c15.753,0.938,31.592,1.881,47.009-3.474c6.056-2.103,12.686-2.557,18.822-4.484
		c5.271-1.659,8.054-0.224,10.248,4.576c5.012,10.958,8.59,22.044,4.517,34.042c-0.659,1.943-2.583,4.438-4.388,4.895
		c-19.838,5.028-40.077,7.795-60.511,5.923c-25.723-2.354-51.388-5.458-76.999-8.82c-16.714-2.193-33.297-5.417-48.49-13.227
		c-2.872-1.479-5.711-3.126-8.272-5.068C215.331,535.792,215.175,526.09,225.198,517.798z M347.701,715.132
		c-21.922,3.04-43.886,3.944-65.121-4.864c-8.905-3.691-16.724-10.708-20.791-21.646c36.548,11.533,72.831,19.778,110.912,11.17
		C366.768,709.357,357.552,713.766,347.701,715.132z M425.361,635.188c-4.132,11.166-15.466,13.128-23.985,18.72
		c0.177,0.913,0.354,1.823,0.53,2.737c4.421-0.453,8.841-0.905,13.262-1.356c1.12,10.827-7.99,25.66-21.276,30.482
		c-11.324,4.112-23.41,7.784-35.321,8.369c-19.267,0.941-39.08,1.378-57.895-2.048c-18.141-3.306-35.549-11.201-52.81-18.198
		c-9.692-3.929-22.442-18.852-20.215-33.347c26.608,10.907,54.099,16.612,81.886,20.86c10.932,1.668,22.162,1.849,33.258,1.849
		c4.034,0,8.067-2.503,12.1-3.863c-0.211-0.714-0.425-1.424-0.639-2.136c-2.247,0-4.517,0.199-6.739-0.028
		c-31.776-3.274-63.701-5.256-94.347-15.695c-12.126-4.134-24.316-7.234-33.738-16.542c-11.272-11.134-13.232-23.965-8.24-39.095
		c70.225,29.73,142.079,37.401,217.318,19.365C430.517,614.686,429.171,624.884,425.361,635.188z M420.758,599.424
		c-8.051,2.952-16.674,5.258-25.199,5.944c-31.277,2.519-62.592,2.708-93.794-1.505c-28.138-3.798-55.222-11.256-81.375-22.187
		c-15.683-6.551-18.292-15.372-3.975-35.829c15.649,12.233,33.184,18.346,52.262,21.007c24.509,3.424,48.866,8.183,73.472,10.519
		c16.081,1.526,32.525,0.338,48.736-0.725c9.92-0.65,19.737-3.201,29.525-5.256c2.811-0.591,5.355-2.421,8.272-3.798
		c0.456,1.273,0.813,3.009,1.638,4.484C436.386,582.885,432.599,595.084,420.758,599.424z"/>
	<linearGradient id="SVGID_1_" gradientUnits="userSpaceOnUse" x1="208.6035" y1="640.3535" x2="429.4365" y2="640.3535">
		<stop  offset="0.0056" style="stop-color:#541513"/>
		<stop  offset="0.0843" style="stop-color:#8D5027"/>
		<stop  offset="0.382" style="stop-color:#CB9552"/>
		<stop  offset="0.5618" style="stop-color:#FFF2DB"/>
		<stop  offset="0.8034" style="stop-color:#D7B189"/>
		<stop  offset="0.8984" style="stop-color:#B2733B"/>
		<stop  offset="0.9551" style="stop-color:#9C530D"/>
	</linearGradient>
	<linearGradient id="SVGID_2_" gradientUnits="userSpaceOnUse" x1="208.1035" y1="640.2676" x2="429.9365" y2="640.2676">
		<stop  offset="0.0056" style="stop-color:#541513"/>
		<stop  offset="0.0843" style="stop-color:#8D5027"/>
		<stop  offset="0.382" style="stop-color:#CB9552"/>
		<stop  offset="0.5618" style="stop-color:#FFF2DB"/>
		<stop  offset="0.8034" style="stop-color:#D7B189"/>
		<stop  offset="0.8984" style="stop-color:#B2733B"/>
		<stop  offset="0.9551" style="stop-color:#9C530D"/>
	</linearGradient>
	<path fill-rule="evenodd" clip-rule="evenodd" fill="url(#SVGID_1_)" stroke="url(#SVGID_2_)" stroke-miterlimit="10" d="
		M227.651,640.547c26.608,10.907,54.099,16.612,81.886,20.86c10.932,1.668,22.162,1.849,33.258,1.849
		c4.034,0,8.067-2.503,12.1-3.863c-0.211-0.714-0.425-1.424-0.639-2.136c-2.247,0-4.517,0.199-6.739-0.028
		c-31.776-3.274-63.701-5.256-94.347-15.695c-12.126-4.134-24.316-7.234-33.738-16.542c-11.272-11.134-13.232-23.965-8.24-39.095
		c70.225,29.73,142.079,37.401,217.318,19.365c2.007,9.424,0.661,19.622-3.148,29.926c-4.132,11.166-15.466,13.128-23.985,18.72
		c0.177,0.913,0.354,1.823,0.53,2.737c4.421-0.453,8.841-0.905,13.262-1.356c1.12,10.827-7.99,25.66-21.276,30.482
		c-11.324,4.112-23.41,7.784-35.321,8.369c-19.267,0.941-39.08,1.378-57.895-2.048c-18.141-3.306-35.549-11.201-52.81-18.198
		C238.174,669.965,225.423,655.042,227.651,640.547z M400.092,637.687c-3.293-4.298-5.719-10.043-10.075-12.557
		c-6.813-3.924-12.002,0.408-15.25,6.815c-2.987,5.9-6.833,11.532-8.747,17.745c-1.104,3.577-0.563,9.554,1.817,11.798
		c3.2,3.012,7.396,5.938,14.032,3.588C392.529,661.303,397.338,651.233,400.092,637.687z"/>
	<linearGradient id="SVGID_3_" gradientUnits="userSpaceOnUse" x1="217.7876" y1="540.4756" x2="426.0244" y2="540.4756">
		<stop  offset="0.0056" style="stop-color:#541513"/>
		<stop  offset="0.0843" style="stop-color:#8D5027"/>
		<stop  offset="0.382" style="stop-color:#CB9552"/>
		<stop  offset="0.5618" style="stop-color:#FFF2DB"/>
		<stop  offset="0.8034" style="stop-color:#D7B189"/>
		<stop  offset="0.8984" style="stop-color:#B2733B"/>
		<stop  offset="0.9551" style="stop-color:#9C530D"/>
	</linearGradient>
	<linearGradient id="SVGID_4_" gradientUnits="userSpaceOnUse" x1="217.2876" y1="540.082" x2="426.5244" y2="540.082">
		<stop  offset="0.0056" style="stop-color:#541513"/>
		<stop  offset="0.0843" style="stop-color:#8D5027"/>
		<stop  offset="0.382" style="stop-color:#CB9552"/>
		<stop  offset="0.5618" style="stop-color:#FFF2DB"/>
		<stop  offset="0.8034" style="stop-color:#D7B189"/>
		<stop  offset="0.8984" style="stop-color:#B2733B"/>
		<stop  offset="0.9551" style="stop-color:#9C530D"/>
	</linearGradient>
	<path fill-rule="evenodd" clip-rule="evenodd" fill="url(#SVGID_3_)" stroke="url(#SVGID_4_)" stroke-miterlimit="10" d="
		M235.586,511.809c16.989,4.218,33.786,9.591,51.017,12.339c18.81,3.002,37.994,3.951,57.058,5.085
		c15.753,0.938,31.592,1.881,47.009-3.474c6.056-2.103,12.686-2.557,18.822-4.484c5.271-1.659,8.054-0.224,10.248,4.576
		c5.012,10.958,8.59,22.044,4.517,34.042c-0.659,1.943-2.583,4.438-4.388,4.895c-19.838,5.028-40.077,7.795-60.511,5.923
		c-25.723-2.354-51.388-5.458-76.999-8.82c-16.714-2.193-33.297-5.417-48.49-13.227c-2.872-1.479-5.711-3.126-8.272-5.068
		c-10.266-7.803-10.421-17.505-0.398-25.797c3.515-2.908,7.351-5.439,11.04-8.145C236.021,510.372,235.803,511.092,235.586,511.809z
		"/>
	<linearGradient id="SVGID_5_" gradientUnits="userSpaceOnUse" x1="207.0166" y1="576.5059" x2="433.1758" y2="576.5059">
		<stop  offset="0.0056" style="stop-color:#541513"/>
		<stop  offset="0.0843" style="stop-color:#8D5027"/>
		<stop  offset="0.382" style="stop-color:#CB9552"/>
		<stop  offset="0.5618" style="stop-color:#FFF2DB"/>
		<stop  offset="0.8034" style="stop-color:#D7B189"/>
		<stop  offset="0.8984" style="stop-color:#B2733B"/>
		<stop  offset="0.9551" style="stop-color:#9C530D"/>
	</linearGradient>
	<linearGradient id="SVGID_6_" gradientUnits="userSpaceOnUse" x1="206.5166" y1="576.3965" x2="433.6758" y2="576.3965">
		<stop  offset="0.0056" style="stop-color:#541513"/>
		<stop  offset="0.0843" style="stop-color:#8D5027"/>
		<stop  offset="0.382" style="stop-color:#CB9552"/>
		<stop  offset="0.5618" style="stop-color:#FFF2DB"/>
		<stop  offset="0.8034" style="stop-color:#D7B189"/>
		<stop  offset="0.8984" style="stop-color:#B2733B"/>
		<stop  offset="0.9551" style="stop-color:#9C530D"/>
	</linearGradient>
	<path fill-rule="evenodd" clip-rule="evenodd" fill="url(#SVGID_5_)" stroke="url(#SVGID_6_)" stroke-miterlimit="10" d="
		M216.414,545.848c15.649,12.233,33.184,18.346,52.262,21.007c24.509,3.424,48.866,8.183,73.472,10.519
		c16.081,1.526,32.525,0.338,48.736-0.725c9.92-0.65,19.737-3.201,29.525-5.256c2.811-0.591,5.355-2.421,8.272-3.798
		c0.456,1.273,0.813,3.009,1.638,4.484c6.065,10.806,2.278,23.005-9.563,27.345c-8.051,2.952-16.674,5.258-25.199,5.944
		c-31.277,2.519-62.592,2.708-93.794-1.505c-28.138-3.798-55.222-11.256-81.375-22.187
		C204.706,575.126,202.097,566.305,216.414,545.848z"/>
	<linearGradient id="SVGID_7_" gradientUnits="userSpaceOnUse" x1="236.6372" y1="499.4473" x2="414.292" y2="499.4473">
		<stop  offset="0.0056" style="stop-color:#541513"/>
		<stop  offset="0.0843" style="stop-color:#8D5027"/>
		<stop  offset="0.382" style="stop-color:#CB9552"/>
		<stop  offset="0.5618" style="stop-color:#FFF2DB"/>
		<stop  offset="0.8034" style="stop-color:#D7B189"/>
		<stop  offset="0.8984" style="stop-color:#B2733B"/>
		<stop  offset="0.9551" style="stop-color:#9C530D"/>
	</linearGradient>
	<linearGradient id="SVGID_8_" gradientUnits="userSpaceOnUse" x1="236.1372" y1="499.4492" x2="414.792" y2="499.4492">
		<stop  offset="0.0056" style="stop-color:#541513"/>
		<stop  offset="0.0843" style="stop-color:#8D5027"/>
		<stop  offset="0.382" style="stop-color:#CB9552"/>
		<stop  offset="0.5618" style="stop-color:#FFF2DB"/>
		<stop  offset="0.8034" style="stop-color:#D7B189"/>
		<stop  offset="0.8984" style="stop-color:#B2733B"/>
		<stop  offset="0.9551" style="stop-color:#9C530D"/>
	</linearGradient>
	<path fill-rule="evenodd" clip-rule="evenodd" fill="url(#SVGID_7_)" stroke="url(#SVGID_8_)" stroke-miterlimit="10" d="
		M351.921,523.131c-28.047-3.295-58.325-6.543-88.49-10.617c-7.376-0.997-14.341-4.804-21.556-7.13
		c-5.195-1.674-6.708-5.569-3.713-9.199c5.892-7.142,12.143-14.37,19.631-19.668c2.831-2.003,9.818,0.432,14.347,2.219
		c19.436,7.666,39.838,10.833,60.438,11.668c16.799,0.683,33.695-0.997,50.551-1.59c4.973-0.174,10.252-5.354,14.852,0.092
		c5.76,6.815,11.093,13.991,16.252,21.254c0.425,0.597-1.5,3.764-2.975,4.515c-3.109,1.582-6.569,2.951-10.014,3.352
		C385.6,519.849,369.91,521.307,351.921,523.131z"/>
	<linearGradient id="SVGID_9_" gradientUnits="userSpaceOnUse" x1="264.6982" y1="460.0508" x2="387.4277" y2="460.0508">
		<stop  offset="0.0056" style="stop-color:#541513"/>
		<stop  offset="0.0843" style="stop-color:#8D5027"/>
		<stop  offset="0.382" style="stop-color:#CB9552"/>
		<stop  offset="0.5618" style="stop-color:#FFF2DB"/>
		<stop  offset="0.8034" style="stop-color:#D7B189"/>
		<stop  offset="0.8984" style="stop-color:#B2733B"/>
		<stop  offset="0.9551" style="stop-color:#9C530D"/>
	</linearGradient>
	<linearGradient id="SVGID_10_" gradientUnits="userSpaceOnUse" x1="264.0034" y1="460.0508" x2="388.1611" y2="460.0508">
		<stop  offset="0.0056" style="stop-color:#541513"/>
		<stop  offset="0.0843" style="stop-color:#8D5027"/>
		<stop  offset="0.382" style="stop-color:#CB9552"/>
		<stop  offset="0.5618" style="stop-color:#FFF2DB"/>
		<stop  offset="0.8034" style="stop-color:#D7B189"/>
		<stop  offset="0.8984" style="stop-color:#B2733B"/>
		<stop  offset="0.9551" style="stop-color:#9C530D"/>
	</linearGradient>
	<path fill-rule="evenodd" clip-rule="evenodd" fill="url(#SVGID_9_)" stroke="url(#SVGID_10_)" stroke-miterlimit="10" d="
		M387.428,481.857c-42.99,5.429-83.173,1.215-122.729-12.517c9.429-19.454,38.991-35.745,62.559-33.109
		C355.667,439.408,374.969,454.195,387.428,481.857z"/>
	<linearGradient id="SVGID_11_" gradientUnits="userSpaceOnUse" x1="261.7891" y1="702.9463" x2="372.7012" y2="702.9463">
		<stop  offset="0.0056" style="stop-color:#541513"/>
		<stop  offset="0.0843" style="stop-color:#8D5027"/>
		<stop  offset="0.382" style="stop-color:#CB9552"/>
		<stop  offset="0.5618" style="stop-color:#FFF2DB"/>
		<stop  offset="0.8034" style="stop-color:#D7B189"/>
		<stop  offset="0.8984" style="stop-color:#B2733B"/>
		<stop  offset="0.9551" style="stop-color:#9C530D"/>
	</linearGradient>
	<linearGradient id="SVGID_12_" gradientUnits="userSpaceOnUse" x1="260.9639" y1="702.8047" x2="373.7549" y2="702.8047">
		<stop  offset="0.0056" style="stop-color:#541513"/>
		<stop  offset="0.0843" style="stop-color:#8D5027"/>
		<stop  offset="0.382" style="stop-color:#CB9552"/>
		<stop  offset="0.5618" style="stop-color:#FFF2DB"/>
		<stop  offset="0.8034" style="stop-color:#D7B189"/>
		<stop  offset="0.8984" style="stop-color:#B2733B"/>
		<stop  offset="0.9551" style="stop-color:#9C530D"/>
	</linearGradient>
	<path fill-rule="evenodd" clip-rule="evenodd" fill="url(#SVGID_11_)" stroke="url(#SVGID_12_)" stroke-miterlimit="10" d="
		M372.701,699.791c-5.934,9.566-15.149,13.975-25,15.341c-21.922,3.04-43.886,3.944-65.121-4.864
		c-8.905-3.691-16.724-10.708-20.791-21.646C298.337,700.154,334.62,708.399,372.701,699.791z"/>
	<path fill-rule="evenodd" clip-rule="evenodd" d="M400.092,637.687c-2.754,13.547-7.563,23.616-18.223,27.39
		c-6.636,2.351-10.832-0.576-14.032-3.588c-2.38-2.244-2.922-8.221-1.817-11.798c1.914-6.213,5.76-11.845,8.747-17.745
		c3.248-6.407,8.437-10.739,15.25-6.815C394.373,627.644,396.799,633.389,400.092,637.687z M379.631,658.568
		c11.443-4.61,15.831-18.58,8.343-26.268C385.233,640.93,382.513,649.497,379.631,658.568z"/>
</g>
<path fill-rule="evenodd" clip-rule="evenodd" d="M388.893,631.021c-4.343,0-8.407,3.683-8.225,8.091
	c0.036,0.849,0.064,1.775-0.272,2.518c-0.62,0.878-0.675,1.083-0.16,0.611c-0.133,0.165-0.219,0.282-0.286,0.376
	c-0.068,0.047-0.146,0.101-0.238,0.167c-3.046,2.193-5.734,4.75-6.348,8.616c-0.694,4.354,1.057,8.686,5.744,9.952
	c3.884,1.051,9.239-1.218,10.068-5.452c1.721-1.271,3.299-2.609,4.458-4.454c2.319-3.685,3.666-7.979,3.483-12.334
	C396.933,634.707,393.515,631.021,388.893,631.021z"/>
<line fill-rule="evenodd" clip-rule="evenodd" fill="none" stroke="#000000" stroke-miterlimit="10" x1="321.305" y1="427.741" x2="321.905" y2="336"/>
</svg>
